<?xml version="1.0" encoding="UTF-8" standalone="no"?>
<!-- Generator: Adobe Illustrator 16.0.0, SVG Export Plug-In . SVG Version: 6.00 Build 0)  -->

<svg
   xmlns:dc="http://purl.org/dc/elements/1.1/"
   xmlns:cc="http://creativecommons.org/ns#"
   xmlns:rdf="http://www.w3.org/1999/02/22-rdf-syntax-ns#"
   xmlns:svg="http://www.w3.org/2000/svg"
   xmlns="http://www.w3.org/2000/svg"
   xmlns:sodipodi="http://sodipodi.sourceforge.net/DTD/sodipodi-0.dtd"
   xmlns:inkscape="http://www.inkscape.org/namespaces/inkscape"
   version="1.1"
   x="0px"
   y="0px"
   width="32px"
   height="31.999px"
   viewBox="0 0 32 31.999"
   enable-background="new 0 0 32 31.999"
   xml:space="preserve"
   id="svg2"
   inkscape:version="0.91 r"
   sodipodi:docname="settings.svg"><metadata
     id="metadata73"><rdf:RDF><cc:Work
         rdf:about=""><dc:format>image/svg+xml</dc:format><dc:type
           rdf:resource="http://purl.org/dc/dcmitype/StillImage" /></cc:Work></rdf:RDF></metadata><defs
     id="defs71" /><sodipodi:namedview
     pagecolor="#ffffff"
     bordercolor="#666666"
     borderopacity="1"
     objecttolerance="10"
     gridtolerance="10"
     guidetolerance="10"
     inkscape:pageopacity="0"
     inkscape:pageshadow="2"
     inkscape:window-width="1920"
     inkscape:window-height="1029"
     id="namedview69"
     showgrid="false"
     inkscape:zoom="14.750461"
     inkscape:cx="5.5560329"
     inkscape:cy="20.074751"
     inkscape:window-x="0"
     inkscape:window-y="25"
     inkscape:window-maximized="1"
     inkscape:current-layer="svg2" /><g
     id="Layer_2" /><g
     id="Layer_1" /><g
     id="Layer_4" /><g
     id="Layer_3" /><g
     id="Layer_6" /><g
     id="Layer_7" /><g
     id="Layer_5" /><g
     id="Layer_9" /><g
     id="Layer_8" /><g
     id="Layer_11" /><g
     id="Layer_10" /><g
     id="Layer_13"
     display="none" /><g
     id="Layer_14" /><g
     id="Layer_12" /><g
     id="Layer_16" /><g
     id="Layer_15" /><g
     id="Layer_18" /><g
     id="Layer_17" /><g
     id="Layer_19" /><g
     id="Layer_20" /><g
     id="Layer_21" /><g
     id="Layer_22" /><g
     id="Layer_23" /><g
     id="Layer_26" /><g
     id="Layer_24" /><g
     id="Layer_29" /><g
     id="Layer_25" /><g
     id="Layer_27" /><g
     id="Layer_28" /><g
     id="Layer_34" /><g
     id="Layer_30" /><g
     id="Layer_32_copy" /><g
     id="Layer_32" /><g
     id="Layer_31" /><g
     id="Layer_36" /><g
     id="Layer_35" /><g
     id="Layer_37" /><g
     id="Layer_39" /><g
     id="Layer_38" /><g
     id="Layer_41" /><g
     id="Layer_40" /><g
     id="Layer_43" /><g
     id="Layer_42" /><g
     id="Layer_44"><g
       id="Layer_48" /></g><g
     id="Layer_45" /><g
     id="Layer_46" /><g
     id="Layer_47" /><g
     id="Layer_49" /><g
     id="Layer_50" /><path
     style="fill:#268bd2;fill-opacity:1"
     inkscape:connector-curvature="0"
     d="m 26.087608,17.015815 0,-2.03269 1.663533,-1.50067 c 0.183803,-0.167516 0.242744,-0.429649 0.148128,-0.659209 L 26.658405,9.8296621 C 26.564565,9.6008778 26.33578,9.4574029 26.088383,9.469036 L 23.85095,9.5822649 22.41465,8.1451894 22.527879,5.9085322 C 22.541063,5.661135 22.396813,5.4331262 22.167253,5.3385104 L 19.173669,4.0976465 c -0.22956,-0.095391 -0.491692,-0.035675 -0.659209,0.1489036 l -1.50067,1.6627577 -2.03269,0 -1.499894,-1.6627577 C 13.313689,4.0619716 13.050781,4.0038061 12.821221,4.0976465 L 9.8284129,5.3385104 C 9.6004042,5.4346773 9.4561537,5.6619105 9.4693379,5.9093078 L 9.5825667,8.1467405 8.1462668,9.5830404 5.9096096,9.4698116 C 5.6622124,9.4574029 5.4334281,9.6016534 5.3395878,9.8304376 L 4.0987239,12.824022 c -0.095391,0.22956 -0.035675,0.491692 0.1489037,0.659209 l 1.661982,1.500669 0,2.032691 -1.661982,1.499894 c -0.1845785,0.167516 -0.2442951,0.429649 -0.1489037,0.659209 l 1.2408639,2.993584 c 0.09384,0.22956 0.3226246,0.373035 0.5700218,0.360626 l 2.2366572,-0.113229 1.4370755,1.4363 -0.1132289,2.238208 c -0.013184,0.246622 0.1310663,0.475406 0.3606261,0.569247 l 2.9928085,1.240864 c 0.22956,0.09462 0.492468,0.03567 0.659985,-0.147353 l 1.499894,-1.663533 2.03269,0 1.50067,1.663533 c 0.114004,0.124086 0.273765,0.192334 0.435853,0.192334 0.076,0 0.150455,-0.01551 0.223356,-0.04498 l 2.993584,-1.239313 c 0.22956,-0.09539 0.373035,-0.324176 0.360626,-0.570798 l -0.113229,-2.238208 1.4363,-1.4363 2.237433,0.113229 c 0.248172,0.01241 0.476181,-0.131066 0.570022,-0.360626 l 1.240863,-2.993584 c 0.09462,-0.22956 0.03568,-0.491693 -0.148128,-0.659209 l -1.665859,-1.50067 z m -0.352096,4.323635 -2.083875,-0.107024 c -0.16519,-0.0085 -0.327278,0.05274 -0.443609,0.170618 l -1.804682,1.804682 c -0.117106,0.117106 -0.179149,0.278419 -0.170618,0.443609 l 0.106249,2.084651 -2.229678,0.924444 -1.399849,-1.549529 C 17.597772,24.98759 17.440337,24.917016 17.275147,24.917016 l -2.553077,0 c -0.16519,0 -0.322625,0.07057 -0.434303,0.193885 l -1.399849,1.549529 -2.229677,-0.924444 0.106249,-2.084651 c 0.0085,-0.16519 -0.05274,-0.326503 -0.170619,-0.443609 L 8.7891894,21.403044 C 8.6720829,21.285938 8.5115461,21.22467 8.3455806,21.232426 L 6.2624803,21.33945 5.3372612,19.108997 6.8867899,17.709148 c 0.1233109,-0.110902 0.1931095,-0.268337 0.1931095,-0.433527 l 0,-2.553077 c 0,-0.16519 -0.069799,-0.322625 -0.1931095,-0.434303 l -1.5495287,-1.399849 0.9252191,-2.229678 2.0838758,0.106249 c 0.1659655,0.0085 0.3265023,-0.05274 0.4436088,-0.170619 L 10.594646,8.7896631 c 0.117107,-0.1171066 0.178375,-0.2784189 0.170619,-0.4436089 l -0.106249,-2.0831002 2.229677,-0.9252192 1.39985,1.5495288 c 0.111678,0.1233109 0.269112,0.1931094 0.434302,0.1931094 l 2.553078,0 c 0.16519,0 0.322624,-0.069799 0.434302,-0.1931094 l 1.39985,-1.5495288 2.229677,0.9252192 -0.106249,2.0838758 c -0.0093,0.16519 0.05274,0.3265023 0.170619,0.4436088 l 1.804681,1.8046814 c 0.116331,0.117107 0.278419,0.17915 0.443609,0.170619 l 2.083876,-0.106249 0.925219,2.229677 -1.549529,1.39985 c -0.123311,0.111677 -0.193885,0.269112 -0.193885,0.434302 l 0,2.553078 c 0,0.16519 0.07057,0.322624 0.193885,0.434302 l 1.549529,1.399849 -0.925995,2.228902 z"
     id="path63" /><path
     style="fill:#268bd2;fill-opacity:1"
     inkscape:connector-curvature="0"
     d="m 15.998609,9.5970001 c -3.530258,0 -6.4028581,2.8718239 -6.4028581,6.4028579 0,3.530258 2.8726001,6.402082 6.4028581,6.402082 3.531033,0 6.402857,-2.871824 6.402857,-6.402082 0,-3.531034 -2.871824,-6.4028579 -6.402857,-6.4028579 z m 0,11.6346499 c -2.885784,0 -5.231793,-2.346008 -5.231793,-5.231792 0,-2.885784 2.346009,-5.232568 5.231793,-5.232568 2.885784,0 5.232567,2.346784 5.232567,5.232568 0,2.885784 -2.346783,5.231792 -5.232567,5.231792 z"
     id="path65" /><path
     style="fill:#268bd2;fill-opacity:1"
     inkscape:connector-curvature="0"
     d="m 15.998609,11.947662 c -2.234331,0 -4.051421,1.81709 -4.051421,4.052196 0,2.23433 1.81709,4.052196 4.051421,4.052196 2.235106,0 4.052196,-1.817866 4.052196,-4.052196 0,-2.235106 -1.81709,-4.052196 -4.052196,-4.052196 z m 0,6.933327 c -1.589857,0 -2.881907,-1.292825 -2.881907,-2.881907 0,-1.589857 1.29205,-2.882682 2.881907,-2.882682 1.589856,0 2.882681,1.292825 2.882681,2.882682 0,1.589082 -1.292825,2.881907 -2.882681,2.881907 z"
     id="path67" /></svg>